<svg xmlns="http://www.w3.org/2000/svg" viewBox="0 0 680 730" font-family="system-ui, sans-serif">
  <rect width="100%" height="100%" fill="#faf7f0"/>
  <rect x="40" y="40" width="600" height="600" fill="#fff" stroke="#2e2a25" stroke-width="2"/>
  <line x1="528.34" y1="40.00" x2="490.00" y2="100.00" stroke="#b23a2b" stroke-dasharray="12 4 2 4" stroke-width="2"/>
  <line x1="490.00" y1="100.00" x2="640.00" y2="100.00" stroke="#2f5f9e" stroke-dasharray="9 6" stroke-width="2"/>
  <line x1="500.67" y1="40.00" x2="490.00" y2="100.00" stroke="#2f5f9e" stroke-dasharray="9 6" stroke-width="2"/>
  <line x1="190.00" y1="100.00" x2="151.66" y2="40.00" stroke="#b23a2b" stroke-dasharray="12 4 2 4" stroke-width="2"/>
  <line x1="40.00" y1="100.00" x2="190.00" y2="100.00" stroke="#2f5f9e" stroke-dasharray="9 6" stroke-width="2"/>
  <line x1="190.00" y1="100.00" x2="179.33" y2="40.00" stroke="#2f5f9e" stroke-dasharray="9 6" stroke-width="2"/>
  <line x1="190.00" y1="100.00" x2="490.00" y2="100.00" stroke="#2f5f9e" stroke-dasharray="9 6" stroke-width="2"/>
  <line x1="490.00" y1="100.00" x2="640.00" y2="334.72" stroke="#2f5f9e" stroke-dasharray="9 6" stroke-width="2"/>
  <line x1="640.00" y1="620.17" x2="586.00" y2="640.00" stroke="#2f5f9e" stroke-dasharray="9 6" stroke-width="2"/>
  <line x1="490.00" y1="100.00" x2="586.00" y2="640.00" stroke="#b23a2b" stroke-dasharray="12 4 2 4" stroke-width="2"/>
  <line x1="40.00" y1="334.72" x2="190.00" y2="100.00" stroke="#2f5f9e" stroke-dasharray="9 6" stroke-width="2"/>
  <line x1="94.00" y1="640.00" x2="40.00" y2="620.17" stroke="#2f5f9e" stroke-dasharray="9 6" stroke-width="2"/>
  <line x1="94.00" y1="640.00" x2="190.00" y2="100.00" stroke="#b23a2b" stroke-dasharray="12 4 2 4" stroke-width="2"/>
  <text x="40" y="670" font-size="16" fill="#2e2a25">Dress: printed side up, top of the dress at the top.</text>
  <text x="40" y="690" font-size="14" fill="#2e2a25"><tspan fill="#2f5f9e">- - - valley</tspan>   <tspan fill="#b23a2b">-·-·- mountain</tspan>   (as seen from this side)</text>
</svg>
